<svg xmlns="http://www.w3.org/2000/svg" xmlns:xlink="http://www.w3.org/1999/xlink" width="1024" zoomAndPan="magnify" viewBox="0 0 768 767.999994" height="1024" preserveAspectRatio="xMidYMid meet" version="1.0"><defs><g/><clipPath id="abfc986b13"><rect x="0" width="563" y="0" height="768"/></clipPath></defs><rect x="-76.8" width="921.6" fill="#ffffff" y="-76.799999" height="921.599993" fill-opacity="1"/><rect x="-76.8" width="921.6" fill="#1e3a78" y="-76.799999" height="921.599993" fill-opacity="1"/><g transform="matrix(1, 0, 0, 1, 96, -0.000000000000057351)"><g clip-path="url(#abfc986b13)"><g fill="#f9f7f4" fill-opacity="1"><g transform="translate(0.642361, 603.975081)"><g><path d="M 155.484375 11.8125 C 131.429688 11.8125 106.9375 8.859375 82 2.953125 C 57.070312 -2.953125 36.300781 -10.71875 19.6875 -20.34375 L 22.96875 -109.5625 L 29.515625 -109.5625 L 49.859375 -66.921875 C 55.984375 -54.671875 62.546875 -43.84375 69.546875 -34.4375 C 76.546875 -25.039062 86.164062 -17.71875 98.40625 -12.46875 C 107.15625 -8.09375 115.578125 -5.140625 123.671875 -3.609375 C 131.765625 -2.078125 140.835938 -1.3125 150.890625 -1.3125 C 177.578125 -1.3125 198.679688 -8.523438 214.203125 -22.953125 C 229.734375 -37.390625 237.5 -55.984375 237.5 -78.734375 C 237.5 -100.160156 232.25 -116.882812 221.75 -128.90625 C 211.25 -140.9375 194.410156 -152.640625 171.234375 -164.015625 L 144.328125 -175.828125 C 106.710938 -192.441406 77.300781 -211.570312 56.09375 -233.21875 C 34.882812 -254.875 24.28125 -283.632812 24.28125 -319.5 C 24.28125 -345.300781 30.945312 -367.601562 44.28125 -386.40625 C 57.625 -405.21875 76.210938 -419.65625 100.046875 -429.71875 C 123.890625 -439.78125 151.773438 -444.8125 183.703125 -444.8125 C 206.878906 -444.8125 228.851562 -441.75 249.625 -435.625 C 270.40625 -429.5 288.445312 -421.1875 303.75 -410.6875 L 299.828125 -331.96875 L 293.265625 -331.96875 L 266.359375 -381.171875 C 258.921875 -396.484375 251.484375 -407.304688 244.046875 -413.640625 C 236.617188 -419.984375 228.09375 -424.46875 218.46875 -427.09375 C 212.78125 -428.84375 207.53125 -430.046875 202.71875 -430.703125 C 197.90625 -431.359375 191.785156 -431.6875 184.359375 -431.6875 C 162.046875 -431.6875 143.234375 -425.234375 127.921875 -412.328125 C 112.617188 -399.429688 104.96875 -382.046875 104.96875 -360.171875 C 104.96875 -337.867188 110.867188 -320.046875 122.671875 -306.703125 C 134.484375 -293.367188 151.765625 -281.453125 174.515625 -270.953125 L 204.6875 -257.828125 C 246.675781 -239.460938 276.851562 -219.890625 295.21875 -199.109375 C 313.59375 -178.335938 322.78125 -151.550781 322.78125 -118.75 C 322.78125 -80.257812 308.238281 -48.875 279.15625 -24.59375 C 250.070312 -0.320312 208.847656 11.8125 155.484375 11.8125 Z M 155.484375 11.8125 "/></g></g></g><g fill="#f9f7f4" fill-opacity="1"><g transform="translate(233.543457, 603.975081)"><g><path d="M 155.484375 11.8125 C 131.429688 11.8125 106.9375 8.859375 82 2.953125 C 57.070312 -2.953125 36.300781 -10.71875 19.6875 -20.34375 L 22.96875 -109.5625 L 29.515625 -109.5625 L 49.859375 -66.921875 C 55.984375 -54.671875 62.546875 -43.84375 69.546875 -34.4375 C 76.546875 -25.039062 86.164062 -17.71875 98.40625 -12.46875 C 107.15625 -8.09375 115.578125 -5.140625 123.671875 -3.609375 C 131.765625 -2.078125 140.835938 -1.3125 150.890625 -1.3125 C 177.578125 -1.3125 198.679688 -8.523438 214.203125 -22.953125 C 229.734375 -37.390625 237.5 -55.984375 237.5 -78.734375 C 237.5 -100.160156 232.25 -116.882812 221.75 -128.90625 C 211.25 -140.9375 194.410156 -152.640625 171.234375 -164.015625 L 144.328125 -175.828125 C 106.710938 -192.441406 77.300781 -211.570312 56.09375 -233.21875 C 34.882812 -254.875 24.28125 -283.632812 24.28125 -319.5 C 24.28125 -345.300781 30.945312 -367.601562 44.28125 -386.40625 C 57.625 -405.21875 76.210938 -419.65625 100.046875 -429.71875 C 123.890625 -439.78125 151.773438 -444.8125 183.703125 -444.8125 C 206.878906 -444.8125 228.851562 -441.75 249.625 -435.625 C 270.40625 -429.5 288.445312 -421.1875 303.75 -410.6875 L 299.828125 -331.96875 L 293.265625 -331.96875 L 266.359375 -381.171875 C 258.921875 -396.484375 251.484375 -407.304688 244.046875 -413.640625 C 236.617188 -419.984375 228.09375 -424.46875 218.46875 -427.09375 C 212.78125 -428.84375 207.53125 -430.046875 202.71875 -430.703125 C 197.90625 -431.359375 191.785156 -431.6875 184.359375 -431.6875 C 162.046875 -431.6875 143.234375 -425.234375 127.921875 -412.328125 C 112.617188 -399.429688 104.96875 -382.046875 104.96875 -360.171875 C 104.96875 -337.867188 110.867188 -320.046875 122.671875 -306.703125 C 134.484375 -293.367188 151.765625 -281.453125 174.515625 -270.953125 L 204.6875 -257.828125 C 246.675781 -239.460938 276.851562 -219.890625 295.21875 -199.109375 C 313.59375 -178.335938 322.78125 -151.550781 322.78125 -118.75 C 322.78125 -80.257812 308.238281 -48.875 279.15625 -24.59375 C 250.070312 -0.320312 208.847656 11.8125 155.484375 11.8125 Z M 155.484375 11.8125 "/></g></g></g></g></g></svg>